<svg xmlns="http://www.w3.org/2000/svg" xmlns:xlink="http://www.w3.org/1999/xlink" width="50" zoomAndPan="magnify" viewBox="0 0 37.5 37.499999" height="50" preserveAspectRatio="xMidYMid meet" version="1.0"><defs><clipPath id="4017b009cb"><path d="M 0 0 L 37.007812 0 L 37.007812 37.007812 L 0 37.007812 Z M 0 0 " clip-rule="nonzero"/></clipPath><clipPath id="f5db107a46"><path d="M 5 2.089844 L 34.46875 2.089844 L 34.46875 34 L 5 34 Z M 5 2.089844 " clip-rule="nonzero"/></clipPath></defs><g clip-path="url(#4017b009cb)"><path fill="#ffffff" d="M 0 0 L 37.007812 0 L 37.007812 37.007812 L 0 37.007812 Z M 0 0 " fill-opacity="1" fill-rule="nonzero"/><path fill="#ffffff" d="M 0 0 L 37.007812 0 L 37.007812 37.007812 L 0 37.007812 Z M 0 0 " fill-opacity="1" fill-rule="nonzero"/></g><g clip-path="url(#f5db107a46)"><path fill="#cecece" d="M 26.570312 33.28125 C 23.152344 33.472656 9.773438 34.910156 6.753906 29.925781 C 5.792969 28.335938 5.835938 26.734375 5.921875 25.46875 C 6.1875 21.675781 9.21875 19.765625 10.308594 18.804688 C 10.820312 18.347656 11.15625 17.847656 11.378906 17.347656 C 10.351562 16.609375 9.496094 15.652344 8.886719 14.542969 C 8.242188 13.273438 7.929688 10.785156 7.941406 9.578125 C 8.445312 5.5 11.949219 2.296875 16.265625 2.199219 C 21.003906 2.089844 24.929688 5.757812 25.035156 10.390625 C 25.125 14.265625 22.511719 17.585938 18.878906 18.628906 C 18.910156 18.742188 18.972656 18.859375 19.070312 18.984375 C 20.246094 20.480469 26.511719 19.765625 28.414062 19.722656 C 30.316406 19.679688 31.15625 14.710938 32.6875 15.054688 C 34.023438 15.359375 34.148438 20.734375 34.242188 24.917969 C 34.339844 29.105469 30.121094 33.082031 26.570312 33.28125 Z M 26.570312 33.28125 " fill-opacity="1" fill-rule="nonzero"/></g><path fill="#f4f6fc" d="M 12.253906 10.703125 C 11.625 10.714844 11.101562 10.21875 11.085938 9.585938 C 11.070312 8.957031 11.570312 8.433594 12.199219 8.417969 C 12.832031 8.40625 13.351562 8.90625 13.367188 9.535156 C 13.382812 10.164062 12.882812 10.6875 12.253906 10.703125 Z M 12.253906 10.703125 " fill-opacity="1" fill-rule="nonzero"/><path fill="#f4f6fc" d="M 30.140625 24.546875 C 30.121094 25.1875 29.859375 25.726562 29.386719 26.097656 C 28.425781 26.859375 26.804688 26.789062 25.921875 26.679688 C 25.898438 26.746094 25.871094 26.8125 25.839844 26.882812 C 25.664062 27.242188 24.792969 28.660156 22.015625 28.722656 C 21.175781 28.742188 20.160156 28.636719 18.929688 28.339844 C 16.945312 27.859375 15.609375 26.953125 14.957031 25.648438 C 14.046875 23.828125 14.835938 21.945312 14.867188 21.863281 C 14.980469 21.609375 15.277344 21.488281 15.535156 21.597656 C 15.792969 21.707031 15.910156 22.007812 15.800781 22.261719 C 15.792969 22.285156 15.167969 23.816406 15.867188 25.199219 C 16.382812 26.222656 17.492188 26.945312 19.171875 27.351562 C 22.347656 28.125 23.832031 27.464844 24.433594 27 C 24.8125 26.710938 24.945312 26.429688 24.976562 26.3125 C 24.910156 26.175781 24.90625 26.015625 24.972656 25.875 C 25.074219 25.660156 25.304688 25.546875 25.535156 25.59375 C 26.167969 25.722656 27.976562 25.921875 28.757812 25.300781 C 29 25.113281 29.117188 24.863281 29.125 24.515625 C 29.144531 23.992188 29.046875 23.628906 28.835938 23.410156 C 28.46875 23.019531 27.683594 23.003906 26.855469 22.988281 C 26.558594 22.980469 26.246094 22.976562 25.949219 22.953125 C 25.667969 22.925781 25.460938 22.683594 25.484375 22.402344 C 25.507812 22.125 25.75 21.914062 26.03125 21.941406 C 26.300781 21.964844 26.582031 21.96875 26.875 21.972656 C 27.875 21.992188 28.910156 22.011719 29.574219 22.710938 C 29.980469 23.136719 30.164062 23.738281 30.140625 24.546875 Z M 30.140625 24.546875 " fill-opacity="1" fill-rule="nonzero"/><path fill="#f4f6fc" d="M 9.738281 14.34375 C 9.394531 14.472656 8.710938 14.59375 7.941406 14.617188 C 6.726562 14.640625 5.527344 14.203125 4.535156 13.410156 C 4.011719 12.988281 2.65625 11.601562 3.175781 10.773438 C 3.382812 10.449219 4.011719 10.574219 4.320312 10.558594 C 4.980469 10.523438 5.707031 10.425781 6.324219 10.167969 C 6.671875 10.019531 6.9375 9.882812 7.199219 9.757812 C 7.5625 9.582031 7.777344 9.527344 7.957031 9.539062 C 8.171875 9.554688 8.460938 9.660156 8.640625 10.011719 C 9.078125 10.878906 8.859375 11.601562 9.371094 12.320312 C 9.886719 13.042969 10.691406 13.980469 9.738281 14.34375 Z M 9.738281 14.34375 " fill-opacity="1" fill-rule="nonzero"/></svg>