<svg xmlns="http://www.w3.org/2000/svg" xmlns:xlink="http://www.w3.org/1999/xlink" width="50" zoomAndPan="magnify" viewBox="0 0 37.5 37.499999" height="50" preserveAspectRatio="xMidYMid meet" version="1.0"><defs><clipPath id="af77d180ed"><path d="M 0 0 L 37.007812 0 L 37.007812 37.007812 L 0 37.007812 Z M 0 0 " clip-rule="nonzero"/></clipPath><clipPath id="55db80c912"><path d="M 24 1.480469 L 35.527344 1.480469 L 35.527344 13 L 24 13 Z M 24 1.480469 " clip-rule="nonzero"/></clipPath><clipPath id="6ec8f17e7e"><path d="M 1.480469 13 L 13 13 L 13 24 L 1.480469 24 Z M 1.480469 13 " clip-rule="nonzero"/></clipPath><clipPath id="9dda117ff5"><path d="M 13 24 L 24 24 L 24 35.527344 L 13 35.527344 Z M 13 24 " clip-rule="nonzero"/></clipPath><clipPath id="c4107e9650"><path d="M 24 24 L 35.527344 24 L 35.527344 35.527344 L 24 35.527344 Z M 24 24 " clip-rule="nonzero"/></clipPath><clipPath id="a7a4a65a38"><path d="M 1.480469 24 L 13 24 L 13 35.527344 L 1.480469 35.527344 Z M 1.480469 24 " clip-rule="nonzero"/></clipPath><clipPath id="cfa493d742"><path d="M 1.480469 1.480469 L 13 1.480469 L 13 13 L 1.480469 13 Z M 1.480469 1.480469 " clip-rule="nonzero"/></clipPath><clipPath id="89abc97e8e"><path d="M 13 1.480469 L 24 1.480469 L 24 13 L 13 13 Z M 13 1.480469 " clip-rule="nonzero"/></clipPath><clipPath id="5a3702c7f4"><path d="M 24 13 L 35.527344 13 L 35.527344 24 L 24 24 Z M 24 13 " clip-rule="nonzero"/></clipPath></defs><g clip-path="url(#af77d180ed)"><path fill="#ffffff" d="M 0 0 L 37.007812 0 L 37.007812 37.007812 L 0 37.007812 Z M 0 0 " fill-opacity="1" fill-rule="nonzero"/><path fill="#ffffff" d="M 0 0 L 37.007812 0 L 37.007812 37.007812 L 0 37.007812 Z M 0 0 " fill-opacity="1" fill-rule="nonzero"/></g><path fill="#cecece" d="M 19.539062 27.867188 L 19.355469 27.867188 L 19.355469 28.238281 C 19.355469 28.292969 19.328125 28.34375 19.300781 28.371094 C 19.273438 28.425781 19.195312 28.425781 19.140625 28.425781 L 18.714844 28.425781 L 18.714844 28.851562 C 18.714844 28.902344 18.691406 28.957031 18.664062 28.984375 C 18.636719 29.007812 18.582031 29.035156 18.503906 29.035156 L 18.078125 29.035156 L 18.078125 29.460938 C 18.078125 29.515625 18.050781 29.566406 18.023438 29.59375 C 17.972656 29.621094 17.917969 29.648438 17.863281 29.648438 L 17.4375 29.648438 L 17.4375 29.835938 L 19.539062 29.835938 Z M 19.539062 27.867188 " fill-opacity="1" fill-rule="nonzero"/><path fill="#cecece" d="M 29.675781 19.832031 C 30.417969 19.832031 31.003906 19.246094 31.003906 18.503906 C 31.003906 17.757812 30.417969 17.171875 29.675781 17.171875 C 28.929688 17.171875 28.34375 17.757812 28.34375 18.503906 C 28.34375 19.246094 28.929688 19.832031 29.675781 19.832031 Z M 29.941406 17.707031 C 30.234375 17.707031 30.472656 17.945312 30.472656 18.238281 C 30.472656 18.53125 30.234375 18.769531 29.941406 18.769531 C 29.648438 18.769531 29.410156 18.53125 29.410156 18.238281 C 29.410156 17.945312 29.648438 17.707031 29.941406 17.707031 Z M 29.941406 17.707031 " fill-opacity="1" fill-rule="nonzero"/><g clip-path="url(#55db80c912)"><path fill="#cecece" d="M 33.929688 1.480469 L 24.433594 1.480469 L 24.433594 12.386719 L 35.527344 12.386719 L 35.527344 3.074219 C 35.527344 2.199219 34.808594 1.480469 33.929688 1.480469 Z M 33.929688 1.480469 " fill-opacity="1" fill-rule="nonzero"/></g><g clip-path="url(#6ec8f17e7e)"><path fill="#cecece" d="M 1.480469 13.449219 L 12.464844 13.449219 L 12.464844 23.289062 L 1.480469 23.289062 Z M 1.480469 13.449219 " fill-opacity="1" fill-rule="nonzero"/></g><path fill="#cecece" d="M 13.53125 23.289062 L 23.371094 23.289062 L 23.371094 13.449219 L 13.53125 13.449219 Z M 13.53125 23.289062 " fill-opacity="1" fill-rule="nonzero"/><g clip-path="url(#9dda117ff5)"><path fill="#cecece" d="M 13.53125 35.527344 L 23.371094 35.527344 L 23.371094 24.355469 L 13.53125 24.355469 Z M 13.53125 35.527344 " fill-opacity="1" fill-rule="nonzero"/></g><g clip-path="url(#c4107e9650)"><path fill="#cecece" d="M 24.433594 35.527344 L 33.929688 35.527344 C 34.808594 35.527344 35.527344 34.808594 35.527344 33.929688 L 35.527344 24.355469 L 24.433594 24.355469 Z M 24.433594 35.527344 " fill-opacity="1" fill-rule="nonzero"/></g><g clip-path="url(#a7a4a65a38)"><path fill="#cecece" d="M 1.480469 33.929688 C 1.480469 34.808594 2.199219 35.527344 3.078125 35.527344 L 12.464844 35.527344 L 12.464844 24.355469 L 1.480469 24.355469 Z M 1.480469 33.929688 " fill-opacity="1" fill-rule="nonzero"/></g><g clip-path="url(#cfa493d742)"><path fill="#cecece" d="M 1.480469 3.074219 L 1.480469 12.386719 L 12.464844 12.386719 L 12.464844 1.480469 L 3.078125 1.480469 C 2.199219 1.480469 1.480469 2.199219 1.480469 3.074219 Z M 1.480469 3.074219 " fill-opacity="1" fill-rule="nonzero"/></g><g clip-path="url(#89abc97e8e)"><path fill="#cecece" d="M 13.53125 12.386719 L 23.371094 12.386719 L 23.371094 1.480469 L 13.53125 1.480469 Z M 13.53125 12.386719 " fill-opacity="1" fill-rule="nonzero"/></g><g clip-path="url(#5a3702c7f4)"><path fill="#cecece" d="M 24.433594 23.289062 L 35.527344 23.289062 L 35.527344 13.449219 L 24.433594 13.449219 Z M 27.015625 17.972656 L 27.332031 17.972656 C 27.386719 17.707031 27.519531 17.4375 27.679688 17.199219 C 27.574219 16.933594 27.707031 16.613281 27.972656 16.507812 C 28.105469 16.457031 28.238281 16.457031 28.371094 16.507812 C 28.609375 16.347656 28.875 16.242188 29.144531 16.164062 L 29.144531 15.84375 C 29.144531 15.550781 29.382812 15.3125 29.675781 15.3125 C 29.96875 15.3125 30.207031 15.550781 30.207031 15.84375 L 30.207031 16.164062 C 30.472656 16.214844 30.738281 16.347656 30.976562 16.507812 C 31.242188 16.402344 31.5625 16.535156 31.667969 16.800781 C 31.722656 16.933594 31.722656 17.066406 31.667969 17.199219 C 31.828125 17.4375 31.933594 17.707031 32.015625 17.972656 L 32.335938 17.972656 C 32.628906 17.972656 32.867188 18.210938 32.867188 18.503906 C 32.867188 18.796875 32.628906 19.035156 32.335938 19.035156 L 32.015625 19.035156 C 31.960938 19.300781 31.828125 19.566406 31.667969 19.804688 C 31.777344 20.074219 31.644531 20.390625 31.375 20.5 C 31.242188 20.550781 31.109375 20.550781 30.976562 20.5 C 30.738281 20.65625 30.472656 20.765625 30.207031 20.84375 L 30.207031 21.164062 C 30.207031 21.457031 29.96875 21.695312 29.675781 21.695312 C 29.382812 21.695312 29.144531 21.457031 29.144531 21.164062 L 29.144531 20.84375 C 28.875 20.789062 28.609375 20.65625 28.371094 20.5 C 28.105469 20.605469 27.785156 20.472656 27.679688 20.207031 C 27.625 20.074219 27.625 19.941406 27.679688 19.804688 C 27.519531 19.566406 27.414062 19.300781 27.332031 19.035156 L 27.015625 19.035156 C 26.722656 19.035156 26.484375 18.796875 26.484375 18.503906 C 26.484375 18.210938 26.722656 17.972656 27.015625 17.972656 Z M 27.015625 17.972656 " fill-opacity="1" fill-rule="nonzero"/></g></svg>