<svg xmlns="http://www.w3.org/2000/svg" xmlns:xlink="http://www.w3.org/1999/xlink" width="50" zoomAndPan="magnify" viewBox="0 0 37.5 37.499999" height="50" preserveAspectRatio="xMidYMid meet" version="1.0"><defs><clipPath id="556366676f"><path d="M 0 0 L 37.007812 0 L 37.007812 37.007812 L 0 37.007812 Z M 0 0 " clip-rule="nonzero"/></clipPath><clipPath id="a8577336db"><path d="M 1 25.09375 L 12 25.09375 L 12 34.714844 L 1 34.714844 Z M 1 25.09375 " clip-rule="nonzero"/></clipPath><clipPath id="1302749fa7"><path d="M 13 25.09375 L 24 25.09375 L 24 34.714844 L 13 34.714844 Z M 13 25.09375 " clip-rule="nonzero"/></clipPath><clipPath id="bf9b92999f"><path d="M 25 25.09375 L 35 25.09375 L 35 34.714844 L 25 34.714844 Z M 25 25.09375 " clip-rule="nonzero"/></clipPath><clipPath id="bf9b8027c0"><path d="M 14 13.65625 L 24 13.65625 L 24 23.277344 L 14 23.277344 Z M 14 13.65625 " clip-rule="nonzero"/></clipPath><clipPath id="35a880a861"><path d="M 25 13.65625 L 36 13.65625 L 36 23.277344 L 25 23.277344 Z M 25 13.65625 " clip-rule="nonzero"/></clipPath><clipPath id="6ee2427999"><path d="M 37 13.65625 L 37.007812 13.65625 L 37.007812 23.277344 L 37 23.277344 Z M 37 13.65625 " clip-rule="nonzero"/></clipPath><clipPath id="54be55dfd4"><path d="M 26 2.484375 L 37 2.484375 L 37 12.105469 L 26 12.105469 Z M 26 2.484375 " clip-rule="nonzero"/></clipPath></defs><g clip-path="url(#556366676f)"><path fill="#ffffff" d="M 0 0 L 37.007812 0 L 37.007812 37.007812 L 0 37.007812 Z M 0 0 " fill-opacity="1" fill-rule="nonzero"/><path fill="#ffffff" d="M 0 0 L 37.007812 0 L 37.007812 37.007812 L 0 37.007812 Z M 0 0 " fill-opacity="1" fill-rule="nonzero"/></g><g clip-path="url(#a8577336db)"><path fill="#cecece" d="M 10.921875 34.878906 L 2.585938 34.878906 C 2.398438 34.875 2.242188 34.808594 2.109375 34.679688 C 1.976562 34.546875 1.90625 34.386719 1.898438 34.203125 L 1.898438 25.863281 C 1.902344 25.675781 1.972656 25.515625 2.105469 25.382812 C 2.238281 25.25 2.398438 25.179688 2.585938 25.175781 L 10.921875 25.175781 C 11.113281 25.175781 11.277344 25.246094 11.410156 25.378906 C 11.546875 25.511719 11.617188 25.671875 11.621094 25.863281 L 11.621094 34.199219 C 11.617188 34.386719 11.546875 34.546875 11.410156 34.679688 C 11.273438 34.8125 11.113281 34.878906 10.921875 34.878906 Z M 10.921875 34.878906 " fill-opacity="1" fill-rule="nonzero"/></g><g clip-path="url(#1302749fa7)"><path fill="#cecece" d="M 22.574219 34.867188 L 14.308594 34.867188 C 14.113281 34.875 13.945312 34.8125 13.808594 34.675781 C 13.671875 34.539062 13.605469 34.375 13.609375 34.179688 L 13.609375 25.84375 C 13.605469 25.652344 13.671875 25.488281 13.8125 25.351562 C 13.949219 25.21875 14.113281 25.15625 14.308594 25.164062 L 22.574219 25.164062 C 22.765625 25.15625 22.929688 25.222656 23.066406 25.355469 C 23.203125 25.488281 23.269531 25.652344 23.265625 25.84375 L 23.265625 34.179688 C 23.269531 34.371094 23.207031 34.535156 23.070312 34.671875 C 22.933594 34.808594 22.769531 34.875 22.574219 34.867188 Z M 22.574219 34.867188 " fill-opacity="1" fill-rule="nonzero"/></g><g clip-path="url(#bf9b92999f)"><path fill="#cecece" d="M 34.289062 34.867188 L 25.960938 34.867188 C 25.769531 34.863281 25.609375 34.792969 25.472656 34.660156 C 25.339844 34.527344 25.269531 34.367188 25.261719 34.179688 L 25.261719 25.84375 C 25.269531 25.65625 25.34375 25.496094 25.476562 25.367188 C 25.609375 25.234375 25.773438 25.167969 25.960938 25.164062 L 34.292969 25.164062 C 34.480469 25.167969 34.640625 25.234375 34.777344 25.367188 C 34.910156 25.496094 34.984375 25.65625 34.992188 25.84375 L 34.992188 34.179688 C 34.984375 34.371094 34.914062 34.53125 34.777344 34.664062 C 34.644531 34.796875 34.480469 34.863281 34.289062 34.867188 Z M 34.289062 34.867188 " fill-opacity="1" fill-rule="nonzero"/></g><g clip-path="url(#bf9b8027c0)"><path fill="#cecece" d="M 23.0625 23.441406 L 14.726562 23.441406 C 14.539062 23.441406 14.378906 23.371094 14.246094 23.242188 C 14.113281 23.109375 14.042969 22.953125 14.039062 22.765625 L 14.039062 14.425781 C 14.042969 14.238281 14.109375 14.078125 14.246094 13.945312 C 14.378906 13.8125 14.539062 13.746094 14.726562 13.738281 L 23.0625 13.738281 C 23.25 13.742188 23.414062 13.808594 23.550781 13.941406 C 23.683594 14.074219 23.753906 14.234375 23.757812 14.425781 L 23.757812 22.761719 C 23.753906 22.949219 23.683594 23.113281 23.546875 23.242188 C 23.414062 23.375 23.25 23.441406 23.0625 23.441406 Z M 23.0625 23.441406 " fill-opacity="1" fill-rule="nonzero"/></g><g clip-path="url(#35a880a861)"><path fill="#cecece" d="M 34.714844 23.429688 L 26.445312 23.429688 C 26.25 23.4375 26.085938 23.375 25.945312 23.238281 C 25.808594 23.101562 25.742188 22.9375 25.746094 22.742188 L 25.746094 14.40625 C 25.742188 14.214844 25.8125 14.050781 25.949219 13.917969 C 26.085938 13.78125 26.253906 13.71875 26.445312 13.726562 L 34.714844 13.726562 C 34.90625 13.722656 35.070312 13.785156 35.203125 13.917969 C 35.339844 14.054688 35.40625 14.214844 35.402344 14.40625 L 35.402344 22.742188 C 35.410156 22.9375 35.34375 23.101562 35.207031 23.238281 C 35.070312 23.371094 34.90625 23.4375 34.714844 23.429688 Z M 34.714844 23.429688 " fill-opacity="1" fill-rule="nonzero"/></g><g clip-path="url(#6ee2427999)"><path fill="#cecece" d="M 46.429688 23.429688 L 38.097656 23.429688 C 37.910156 23.425781 37.746094 23.359375 37.613281 23.226562 C 37.476562 23.09375 37.40625 22.933594 37.398438 22.742188 L 37.398438 14.40625 C 37.410156 14.21875 37.480469 14.0625 37.613281 13.929688 C 37.75 13.800781 37.910156 13.730469 38.097656 13.726562 L 46.433594 13.726562 C 46.621094 13.730469 46.78125 13.800781 46.914062 13.929688 C 47.050781 14.0625 47.121094 14.21875 47.128906 14.40625 L 47.128906 22.742188 C 47.121094 22.933594 47.050781 23.09375 46.917969 23.226562 C 46.78125 23.359375 46.617188 23.425781 46.429688 23.429688 Z M 46.429688 23.429688 " fill-opacity="1" fill-rule="nonzero"/></g><g clip-path="url(#54be55dfd4)"><path fill="#cecece" d="M 35.496094 12.269531 L 27.160156 12.269531 C 26.972656 12.265625 26.8125 12.199219 26.679688 12.066406 C 26.546875 11.9375 26.476562 11.777344 26.472656 11.59375 L 26.472656 3.253906 C 26.476562 3.066406 26.546875 2.90625 26.679688 2.773438 C 26.8125 2.640625 26.972656 2.570312 27.160156 2.566406 L 35.496094 2.566406 C 35.683594 2.566406 35.847656 2.636719 35.984375 2.769531 C 36.117188 2.902344 36.1875 3.0625 36.195312 3.253906 L 36.195312 11.589844 C 36.1875 11.777344 36.117188 11.9375 35.980469 12.070312 C 35.847656 12.203125 35.683594 12.269531 35.496094 12.269531 Z M 35.496094 12.269531 " fill-opacity="1" fill-rule="nonzero"/></g></svg>